<svg xmlns="http://www.w3.org/2000/svg" width="772" height="299" viewBox="0 0 772 299">
  <rect width="772" height="299" fill="#f7f6f3"/>
  <rect x="1.0" y="1" width="378.0" height="296.6" fill="#ffffff" stroke="#c9c9c9" stroke-width="1"/>
  <text x="28.0" y="18" font-family="system-ui,sans-serif" font-size="13" font-weight="600" fill="#333">avant — 6 pièces, jour 29%, 2 morceaux</text>
  <polygon points="28.00,270.58 352.00,270.58 352.00,28.00 28.00,28.00" fill="none" stroke="#b04a4a" stroke-width="1.4" stroke-dasharray="6 4"/>
  <rect x="28.00" y="28.00" width="276.50" height="134.01" fill="#c8d9ec" fill-opacity="0.55" stroke="#4a4a4a" stroke-width="1"/>
  <text x="166.25" y="95.01" text-anchor="middle" font-family="system-ui,sans-serif" font-size="9" fill="#2a2a2a">living</text>
  <rect x="28.00" y="156.92" width="181.51" height="18.66" fill="#e8d9bd" fill-opacity="0.55" stroke="#4a4a4a" stroke-width="1"/>
  <text x="118.75" y="166.25" text-anchor="middle" font-family="system-ui,sans-serif" font-size="9" fill="#2a2a2a">kitchen</text>
  <rect x="197.63" y="184.06" width="154.37" height="86.51" fill="#d6e0cd" fill-opacity="0.55" stroke="#4a4a4a" stroke-width="1"/>
  <text x="274.82" y="227.32" text-anchor="middle" font-family="system-ui,sans-serif" font-size="9" fill="#2a2a2a">bedroom</text>
  <rect x="340.13" y="190.85" width="11.87" height="39.02" fill="#d5dfe6" fill-opacity="0.55" stroke="#4a4a4a" stroke-width="1"/>
  <text x="346.06" y="210.36" text-anchor="middle" font-family="system-ui,sans-serif" font-size="9" fill="#2a2a2a">bathroom</text>
  <rect x="319.77" y="116.21" width="32.23" height="72.94" fill="#d5dfe6" fill-opacity="0.55" stroke="#4a4a4a" stroke-width="1"/>
  <text x="335.88" y="152.68" text-anchor="middle" font-family="system-ui,sans-serif" font-size="9" fill="#2a2a2a">bathroom</text>
  <rect x="306.20" y="116.21" width="18.66" height="52.59" fill="#e0dcd6" fill-opacity="0.55" stroke="#4a4a4a" stroke-width="1"/>
  <text x="315.53" y="142.50" text-anchor="middle" font-family="system-ui,sans-serif" font-size="9" fill="#2a2a2a">storage</text>
  <rect x="393.0" y="1" width="378.0" height="296.6" fill="#ffffff" stroke="#c9c9c9" stroke-width="1"/>
  <text x="420.0" y="18" font-family="system-ui,sans-serif" font-size="13" font-weight="600" fill="#333">après — réparé, déplacement 9.04 m</text>
  <polygon points="420.00,270.58 744.00,270.58 744.00,28.00 420.00,28.00" fill="none" stroke="#b04a4a" stroke-width="1.4" stroke-dasharray="6 4"/>
  <rect x="420.00" y="28.00" width="273.11" height="134.01" fill="#c8d9ec" fill-opacity="0.55" stroke="#4a4a4a" stroke-width="1"/>
  <text x="556.55" y="95.01" text-anchor="middle" font-family="system-ui,sans-serif" font-size="9" fill="#2a2a2a">living</text>
  <rect x="420.00" y="162.01" width="273.11" height="18.66" fill="#e8d9bd" fill-opacity="0.55" stroke="#4a4a4a" stroke-width="1"/>
  <text x="556.55" y="171.34" text-anchor="middle" font-family="system-ui,sans-serif" font-size="9" fill="#2a2a2a">kitchen</text>
  <rect x="420.00" y="180.67" width="291.77" height="89.91" fill="#d6e0cd" fill-opacity="0.55" stroke="#4a4a4a" stroke-width="1"/>
  <text x="565.88" y="225.62" text-anchor="middle" font-family="system-ui,sans-serif" font-size="9" fill="#2a2a2a">bedroom</text>
  <rect x="711.77" y="180.67" width="32.23" height="89.91" fill="#d5dfe6" fill-opacity="0.55" stroke="#4a4a4a" stroke-width="1"/>
  <text x="727.88" y="225.62" text-anchor="middle" font-family="system-ui,sans-serif" font-size="9" fill="#2a2a2a">bathroom</text>
  <rect x="711.77" y="28.00" width="32.23" height="152.67" fill="#d5dfe6" fill-opacity="0.55" stroke="#4a4a4a" stroke-width="1"/>
  <text x="727.88" y="104.34" text-anchor="middle" font-family="system-ui,sans-serif" font-size="9" fill="#2a2a2a">bathroom</text>
  <rect x="693.11" y="28.00" width="18.66" height="152.67" fill="#e0dcd6" fill-opacity="0.55" stroke="#4a4a4a" stroke-width="1"/>
  <text x="702.44" y="104.34" text-anchor="middle" font-family="system-ui,sans-serif" font-size="9" fill="#2a2a2a">storage</text>
</svg>
