<svg xmlns="http://www.w3.org/2000/svg" width="772" height="168" viewBox="0 0 772 168">
  <rect width="772" height="168" fill="#f7f6f3"/>
  <rect x="1.0" y="1" width="378.0" height="166.1" fill="#ffffff" stroke="#c9c9c9" stroke-width="1"/>
  <text x="28.0" y="18" font-family="system-ui,sans-serif" font-size="13" font-weight="600" fill="#333">avant — 3 pièces, jour 21%, 1 morceaux</text>
  <polygon points="28.00,140.08 352.00,140.08 352.00,28.00 28.00,28.00" fill="none" stroke="#b04a4a" stroke-width="1.4" stroke-dasharray="6 4"/>
  <rect x="28.00" y="36.15" width="226.19" height="103.92" fill="#c8d9ec" fill-opacity="0.55" stroke="#4a4a4a" stroke-width="1"/>
  <text x="141.09" y="88.11" text-anchor="middle" font-family="system-ui,sans-serif" font-size="9" fill="#2a2a2a">living</text>
  <rect x="256.23" y="93.21" width="95.77" height="46.87" fill="#e8d9bd" fill-opacity="0.55" stroke="#4a4a4a" stroke-width="1"/>
  <text x="304.11" y="116.64" text-anchor="middle" font-family="system-ui,sans-serif" font-size="9" fill="#2a2a2a">kitchen</text>
  <rect x="248.08" y="28.00" width="14.26" height="71.32" fill="#d5dfe6" fill-opacity="0.55" stroke="#4a4a4a" stroke-width="1"/>
  <text x="255.21" y="63.66" text-anchor="middle" font-family="system-ui,sans-serif" font-size="9" fill="#2a2a2a">bathroom</text>
  <rect x="393.0" y="1" width="378.0" height="166.1" fill="#ffffff" stroke="#c9c9c9" stroke-width="1"/>
  <text x="420.0" y="18" font-family="system-ui,sans-serif" font-size="13" font-weight="600" fill="#333">après — réparé, déplacement 3.61 m</text>
  <polygon points="420.00,140.08 744.00,140.08 744.00,28.00 420.00,28.00" fill="none" stroke="#b04a4a" stroke-width="1.4" stroke-dasharray="6 4"/>
  <rect x="420.00" y="28.00" width="228.23" height="112.08" fill="#c8d9ec" fill-opacity="0.55" stroke="#4a4a4a" stroke-width="1"/>
  <text x="534.11" y="84.04" text-anchor="middle" font-family="system-ui,sans-serif" font-size="9" fill="#2a2a2a">living</text>
  <rect x="648.23" y="99.32" width="95.77" height="40.75" fill="#e8d9bd" fill-opacity="0.55" stroke="#4a4a4a" stroke-width="1"/>
  <text x="696.11" y="119.70" text-anchor="middle" font-family="system-ui,sans-serif" font-size="9" fill="#2a2a2a">kitchen</text>
  <rect x="648.23" y="28.00" width="95.77" height="71.32" fill="#d5dfe6" fill-opacity="0.55" stroke="#4a4a4a" stroke-width="1"/>
  <text x="696.11" y="63.66" text-anchor="middle" font-family="system-ui,sans-serif" font-size="9" fill="#2a2a2a">bathroom</text>
</svg>
