<svg xmlns="http://www.w3.org/2000/svg" width="772" height="380" viewBox="0 0 772 380">
  <rect width="772" height="380" fill="#f7f6f3"/>
  <rect x="1.0" y="1" width="378.0" height="378.0" fill="#ffffff" stroke="#c9c9c9" stroke-width="1"/>
  <text x="28.0" y="18" font-family="system-ui,sans-serif" font-size="13" font-weight="600" fill="#333">avant — 5 pièces, jour 35%, 3 morceaux</text>
  <polygon points="28.00,352.00 180.83,352.00 180.83,28.00 28.00,28.00" fill="none" stroke="#b04a4a" stroke-width="1.4" stroke-dasharray="6 4"/>
  <rect x="28.00" y="199.17" width="71.32" height="152.83" fill="#c8d9ec" fill-opacity="0.55" stroke="#4a4a4a" stroke-width="1"/>
  <text x="63.66" y="275.58" text-anchor="middle" font-family="system-ui,sans-serif" font-size="9" fill="#2a2a2a">living</text>
  <rect x="85.06" y="101.36" width="22.42" height="103.92" fill="#e8d9bd" fill-opacity="0.55" stroke="#4a4a4a" stroke-width="1"/>
  <text x="96.26" y="153.32" text-anchor="middle" font-family="system-ui,sans-serif" font-size="9" fill="#2a2a2a">kitchen</text>
  <rect x="101.36" y="28.00" width="79.47" height="177.28" fill="#d6e0cd" fill-opacity="0.55" stroke="#4a4a4a" stroke-width="1"/>
  <text x="141.09" y="116.64" text-anchor="middle" font-family="system-ui,sans-serif" font-size="9" fill="#2a2a2a">bedroom</text>
  <rect x="125.81" y="207.32" width="55.02" height="79.47" fill="#d5dfe6" fill-opacity="0.55" stroke="#4a4a4a" stroke-width="1"/>
  <text x="153.32" y="247.06" text-anchor="middle" font-family="system-ui,sans-serif" font-size="9" fill="#2a2a2a">bathroom</text>
  <rect x="109.51" y="207.32" width="14.26" height="71.32" fill="#e4e0d8" fill-opacity="0.55" stroke="#4a4a4a" stroke-width="1"/>
  <text x="116.64" y="242.98" text-anchor="middle" font-family="system-ui,sans-serif" font-size="9" fill="#2a2a2a">hallway</text>
  <rect x="393.0" y="1" width="378.0" height="378.0" fill="#ffffff" stroke="#c9c9c9" stroke-width="1"/>
  <text x="420.0" y="18" font-family="system-ui,sans-serif" font-size="13" font-weight="600" fill="#333">après — réparé, déplacement 3.34 m</text>
  <polygon points="420.00,352.00 572.83,352.00 572.83,28.00 420.00,28.00" fill="none" stroke="#b04a4a" stroke-width="1.4" stroke-dasharray="6 4"/>
  <rect x="420.00" y="205.28" width="73.36" height="146.72" fill="#c8d9ec" fill-opacity="0.55" stroke="#4a4a4a" stroke-width="1"/>
  <text x="456.68" y="278.64" text-anchor="middle" font-family="system-ui,sans-serif" font-size="9" fill="#2a2a2a">living</text>
  <rect x="420.00" y="28.00" width="73.36" height="177.28" fill="#e8d9bd" fill-opacity="0.55" stroke="#4a4a4a" stroke-width="1"/>
  <text x="456.68" y="116.64" text-anchor="middle" font-family="system-ui,sans-serif" font-size="9" fill="#2a2a2a">kitchen</text>
  <rect x="493.36" y="28.00" width="79.47" height="177.28" fill="#d6e0cd" fill-opacity="0.55" stroke="#4a4a4a" stroke-width="1"/>
  <text x="533.09" y="116.64" text-anchor="middle" font-family="system-ui,sans-serif" font-size="9" fill="#2a2a2a">bedroom</text>
  <rect x="517.81" y="205.28" width="55.02" height="146.72" fill="#d5dfe6" fill-opacity="0.55" stroke="#4a4a4a" stroke-width="1"/>
  <text x="545.32" y="278.64" text-anchor="middle" font-family="system-ui,sans-serif" font-size="9" fill="#2a2a2a">bathroom</text>
  <rect x="493.36" y="205.28" width="24.45" height="146.72" fill="#e4e0d8" fill-opacity="0.55" stroke="#4a4a4a" stroke-width="1"/>
  <text x="505.58" y="278.64" text-anchor="middle" font-family="system-ui,sans-serif" font-size="9" fill="#2a2a2a">hallway</text>
</svg>
