<svg xmlns="http://www.w3.org/2000/svg" width="380" height="380" viewBox="0 0 380 380">
  <rect width="380" height="380" fill="#f7f6f3"/>
  <rect x="1.0" y="1" width="378.0" height="378.0" fill="#ffffff" stroke="#c9c9c9" stroke-width="1"/>
  <text x="28.0" y="18" font-family="system-ui,sans-serif" font-size="13" font-weight="600" fill="#333">trame irrécupérable — 8 pièces, jour 12%, 3 morceaux</text>
  <polygon points="28.00,352.00 224.79,352.00 224.79,28.00 28.00,28.00" fill="none" stroke="#b04a4a" stroke-width="1.4" stroke-dasharray="6 4"/>
  <rect x="107.51" y="28.00" width="117.28" height="125.23" fill="#c8d9ec" fill-opacity="0.55" stroke="#4a4a4a" stroke-width="1"/>
  <text x="166.15" y="90.61" text-anchor="middle" font-family="system-ui,sans-serif" font-size="9" fill="#2a2a2a">living</text>
  <rect x="123.41" y="155.21" width="101.37" height="29.82" fill="#e8d9bd" fill-opacity="0.55" stroke="#4a4a4a" stroke-width="1"/>
  <text x="174.10" y="170.12" text-anchor="middle" font-family="system-ui,sans-serif" font-size="9" fill="#2a2a2a">kitchen</text>
  <rect x="123.41" y="179.07" width="101.37" height="172.93" fill="#d6e0cd" fill-opacity="0.55" stroke="#4a4a4a" stroke-width="1"/>
  <text x="174.10" y="265.53" text-anchor="middle" font-family="system-ui,sans-serif" font-size="9" fill="#2a2a2a">bedroom</text>
  <rect x="28.00" y="179.07" width="101.37" height="172.93" fill="#d6e0cd" fill-opacity="0.55" stroke="#4a4a4a" stroke-width="1"/>
  <text x="78.69" y="265.53" text-anchor="middle" font-family="system-ui,sans-serif" font-size="9" fill="#2a2a2a">bedroom</text>
  <rect x="28.00" y="179.07" width="93.42" height="53.67" fill="#d6e0cd" fill-opacity="0.55" stroke="#4a4a4a" stroke-width="1"/>
  <text x="74.71" y="205.90" text-anchor="middle" font-family="system-ui,sans-serif" font-size="9" fill="#2a2a2a">bedroom</text>
  <rect x="35.95" y="83.66" width="53.67" height="21.87" fill="#d5dfe6" fill-opacity="0.55" stroke="#4a4a4a" stroke-width="1"/>
  <text x="62.79" y="94.59" text-anchor="middle" font-family="system-ui,sans-serif" font-size="9" fill="#2a2a2a">bathroom</text>
  <rect x="35.95" y="28.00" width="53.67" height="69.57" fill="#d5dfe6" fill-opacity="0.55" stroke="#4a4a4a" stroke-width="1"/>
  <text x="62.79" y="62.79" text-anchor="middle" font-family="system-ui,sans-serif" font-size="9" fill="#2a2a2a">bathroom</text>
  <rect x="91.61" y="51.85" width="21.87" height="45.72" fill="#e4e0d8" fill-opacity="0.55" stroke="#4a4a4a" stroke-width="1"/>
  <text x="102.54" y="74.71" text-anchor="middle" font-family="system-ui,sans-serif" font-size="9" fill="#2a2a2a">hallway</text>
</svg>
