<svg xmlns="http://www.w3.org/2000/svg" width="772" height="226" viewBox="0 0 772 226">
  <rect width="772" height="226" fill="#f7f6f3"/>
  <rect x="1.0" y="1" width="378.0" height="223.5" fill="#ffffff" stroke="#c9c9c9" stroke-width="1"/>
  <text x="28.0" y="18" font-family="system-ui,sans-serif" font-size="13" font-weight="600" fill="#333">avant — 4 pièces, jour 23%, 3 morceaux</text>
  <polygon points="28.00,197.51 352.00,197.51 352.00,28.00 28.00,28.00" fill="none" stroke="#b04a4a" stroke-width="1.4" stroke-dasharray="6 4"/>
  <rect x="28.00" y="45.17" width="238.17" height="135.18" fill="#c8d9ec" fill-opacity="0.55" stroke="#4a4a4a" stroke-width="1"/>
  <text x="147.09" y="112.75" text-anchor="middle" font-family="system-ui,sans-serif" font-size="9" fill="#2a2a2a">living</text>
  <rect x="268.32" y="165.32" width="23.60" height="32.19" fill="#e8d9bd" fill-opacity="0.55" stroke="#4a4a4a" stroke-width="1"/>
  <text x="280.12" y="181.42" text-anchor="middle" font-family="system-ui,sans-serif" font-size="9" fill="#2a2a2a">kitchen</text>
  <rect x="268.32" y="45.17" width="83.68" height="100.85" fill="#d6e0cd" fill-opacity="0.55" stroke="#4a4a4a" stroke-width="1"/>
  <text x="310.16" y="95.59" text-anchor="middle" font-family="system-ui,sans-serif" font-size="9" fill="#2a2a2a">bedroom</text>
  <rect x="173.91" y="28.00" width="49.35" height="23.60" fill="#d5dfe6" fill-opacity="0.55" stroke="#4a4a4a" stroke-width="1"/>
  <text x="198.58" y="39.80" text-anchor="middle" font-family="system-ui,sans-serif" font-size="9" fill="#2a2a2a">bathroom</text>
  <rect x="393.0" y="1" width="378.0" height="223.5" fill="#ffffff" stroke="#c9c9c9" stroke-width="1"/>
  <text x="420.0" y="18" font-family="system-ui,sans-serif" font-size="13" font-weight="600" fill="#333">après — réparé, déplacement 8.07 m</text>
  <polygon points="420.00,197.51 744.00,197.51 744.00,28.00 420.00,28.00" fill="none" stroke="#b04a4a" stroke-width="1.4" stroke-dasharray="6 4"/>
  <rect x="420.00" y="51.60" width="240.32" height="145.91" fill="#c8d9ec" fill-opacity="0.55" stroke="#4a4a4a" stroke-width="1"/>
  <text x="540.16" y="124.56" text-anchor="middle" font-family="system-ui,sans-serif" font-size="9" fill="#2a2a2a">living</text>
  <rect x="660.32" y="146.01" width="83.68" height="51.50" fill="#e8d9bd" fill-opacity="0.55" stroke="#4a4a4a" stroke-width="1"/>
  <text x="702.16" y="171.76" text-anchor="middle" font-family="system-ui,sans-serif" font-size="9" fill="#2a2a2a">kitchen</text>
  <rect x="660.32" y="28.00" width="83.68" height="118.01" fill="#d6e0cd" fill-opacity="0.55" stroke="#4a4a4a" stroke-width="1"/>
  <text x="702.16" y="87.01" text-anchor="middle" font-family="system-ui,sans-serif" font-size="9" fill="#2a2a2a">bedroom</text>
  <rect x="420.00" y="28.00" width="240.32" height="23.60" fill="#d5dfe6" fill-opacity="0.55" stroke="#4a4a4a" stroke-width="1"/>
  <text x="540.16" y="39.80" text-anchor="middle" font-family="system-ui,sans-serif" font-size="9" fill="#2a2a2a">bathroom</text>
</svg>
