<svg xmlns="http://www.w3.org/2000/svg" width="772" height="324" viewBox="0 0 772 324">
  <rect width="772" height="324" fill="#f7f6f3"/>
  <rect x="1.0" y="1" width="378.0" height="321.7" fill="#ffffff" stroke="#c9c9c9" stroke-width="1"/>
  <text x="28.0" y="18" font-family="system-ui,sans-serif" font-size="13" font-weight="600" fill="#333">avant — 4 pièces, jour 41%, 4 morceaux</text>
  <polygon points="28.00,295.65 352.00,295.65 352.00,28.00 28.00,28.00" fill="none" stroke="#b04a4a" stroke-width="1.4" stroke-dasharray="6 4"/>
  <rect x="28.00" y="118.16" width="200.03" height="154.96" fill="#c8d9ec" fill-opacity="0.55" stroke="#4a4a4a" stroke-width="1"/>
  <text x="128.02" y="195.63" text-anchor="middle" font-family="system-ui,sans-serif" font-size="9" fill="#2a2a2a">living</text>
  <rect x="230.85" y="253.39" width="121.15" height="42.26" fill="#e8d9bd" fill-opacity="0.55" stroke="#4a4a4a" stroke-width="1"/>
  <text x="291.43" y="274.52" text-anchor="middle" font-family="system-ui,sans-serif" font-size="9" fill="#2a2a2a">kitchen</text>
  <rect x="230.85" y="61.81" width="121.15" height="64.80" fill="#d6e0cd" fill-opacity="0.55" stroke="#4a4a4a" stroke-width="1"/>
  <text x="291.43" y="94.21" text-anchor="middle" font-family="system-ui,sans-serif" font-size="9" fill="#2a2a2a">bedroom</text>
  <rect x="28.00" y="28.00" width="87.34" height="87.34" fill="#d5dfe6" fill-opacity="0.55" stroke="#4a4a4a" stroke-width="1"/>
  <text x="71.67" y="71.67" text-anchor="middle" font-family="system-ui,sans-serif" font-size="9" fill="#2a2a2a">bathroom</text>
  <rect x="393.0" y="1" width="378.0" height="321.7" fill="#ffffff" stroke="#c9c9c9" stroke-width="1"/>
  <text x="420.0" y="18" font-family="system-ui,sans-serif" font-size="13" font-weight="600" fill="#333">après — réparé, déplacement 3.70 m</text>
  <polygon points="420.00,295.65 744.00,295.65 744.00,28.00 420.00,28.00" fill="none" stroke="#b04a4a" stroke-width="1.4" stroke-dasharray="6 4"/>
  <rect x="420.00" y="126.61" width="202.85" height="169.04" fill="#c8d9ec" fill-opacity="0.55" stroke="#4a4a4a" stroke-width="1"/>
  <text x="521.43" y="211.13" text-anchor="middle" font-family="system-ui,sans-serif" font-size="9" fill="#2a2a2a">living</text>
  <rect x="622.85" y="126.61" width="121.15" height="169.04" fill="#e8d9bd" fill-opacity="0.55" stroke="#4a4a4a" stroke-width="1"/>
  <text x="683.43" y="211.13" text-anchor="middle" font-family="system-ui,sans-serif" font-size="9" fill="#2a2a2a">kitchen</text>
  <rect x="622.85" y="28.00" width="121.15" height="98.61" fill="#d6e0cd" fill-opacity="0.55" stroke="#4a4a4a" stroke-width="1"/>
  <text x="683.43" y="77.30" text-anchor="middle" font-family="system-ui,sans-serif" font-size="9" fill="#2a2a2a">bedroom</text>
  <rect x="420.00" y="28.00" width="202.85" height="98.61" fill="#d5dfe6" fill-opacity="0.55" stroke="#4a4a4a" stroke-width="1"/>
  <text x="521.43" y="77.30" text-anchor="middle" font-family="system-ui,sans-serif" font-size="9" fill="#2a2a2a">bathroom</text>
</svg>
