<svg xmlns="http://www.w3.org/2000/svg" width="380" height="380" viewBox="0 0 380 380">
  <rect width="380" height="380" fill="#f7f6f3"/>
  <rect x="1.0" y="1" width="378.0" height="378.0" fill="#ffffff" stroke="#c9c9c9" stroke-width="1"/>
  <text x="28.0" y="18" font-family="system-ui,sans-serif" font-size="13" font-weight="600" fill="#333">infaisable (prouvé) — 7 pièces, jour 43%, 6 morceaux</text>
  <polygon points="28.00,352.00 274.75,352.00 274.75,28.00 28.00,28.00" fill="none" stroke="#b04a4a" stroke-width="1.4" stroke-dasharray="6 4"/>
  <rect x="79.50" y="62.33" width="100.85" height="238.17" fill="#c8d9ec" fill-opacity="0.55" stroke="#4a4a4a" stroke-width="1"/>
  <text x="129.92" y="181.42" text-anchor="middle" font-family="system-ui,sans-serif" font-size="9" fill="#2a2a2a">living</text>
  <rect x="28.00" y="276.90" width="49.35" height="32.19" fill="#e8d9bd" fill-opacity="0.55" stroke="#4a4a4a" stroke-width="1"/>
  <text x="52.68" y="292.99" text-anchor="middle" font-family="system-ui,sans-serif" font-size="9" fill="#2a2a2a">kitchen</text>
  <rect x="182.49" y="53.75" width="92.26" height="92.26" fill="#d6e0cd" fill-opacity="0.55" stroke="#4a4a4a" stroke-width="1"/>
  <text x="228.62" y="99.88" text-anchor="middle" font-family="system-ui,sans-serif" font-size="9" fill="#2a2a2a">bedroom</text>
  <rect x="182.49" y="251.15" width="66.52" height="49.35" fill="#d6e0cd" fill-opacity="0.55" stroke="#4a4a4a" stroke-width="1"/>
  <text x="215.75" y="275.83" text-anchor="middle" font-family="system-ui,sans-serif" font-size="9" fill="#2a2a2a">bedroom</text>
  <rect x="88.08" y="294.07" width="92.26" height="57.93" fill="#d6e0cd" fill-opacity="0.55" stroke="#4a4a4a" stroke-width="1"/>
  <text x="134.21" y="323.03" text-anchor="middle" font-family="system-ui,sans-serif" font-size="9" fill="#2a2a2a">bedroom</text>
  <rect x="28.00" y="225.40" width="49.35" height="40.77" fill="#d5dfe6" fill-opacity="0.55" stroke="#4a4a4a" stroke-width="1"/>
  <text x="52.68" y="245.79" text-anchor="middle" font-family="system-ui,sans-serif" font-size="9" fill="#2a2a2a">bathroom</text>
  <rect x="79.50" y="28.00" width="49.35" height="23.60" fill="#e4e0d8" fill-opacity="0.55" stroke="#4a4a4a" stroke-width="1"/>
  <text x="104.17" y="39.80" text-anchor="middle" font-family="system-ui,sans-serif" font-size="9" fill="#2a2a2a">hallway</text>
</svg>
